@startuml
'https://plantuml.com/class-diagram

class Main extends Application {

+ public void start(Stage stage) throws IOException {
Scene scene = new Scene()
stage.setTitle()
stage.setScene()
stage.show()

+ public static void main(String[] args) {
launch()
}

Class Game {

}

Class Controller {
@FXML
- TextField usernameField
@FXML
- PasswordField passwordField

- final DBManager database
# void registre() {}
# void login() {}
# void guestLogin() {}
}

Class Shop {

}

abstract Class Character {
# int health
# int strength
# int defence
# Random random
+ Character()
+ abstract void tryToAttack()
# abstract int lightAttack()
# abstract int mediumAttack()
# abstract int heavyAttack()
}

Class Player implements Character{
+ Player()
+ void tryToAttack(Character target, String choice) {}
# int lightAttack() {}
# int mediumAttack() {}
# int heavyAttack() {}
}

Class Enemy implements Character {
+ Enemy()
+ void tryToAttack(Character target) {}
# int lightAttack() {}
# int mediumAttack() {}
# int heavyAttack() {}
}

package "Util" {
Class DBManager {
- Connection conn
- String dbPath
- String url

+ boolean doesUserExist(String name, String password) {}
+ void addUserToDB(String name, String password) {}
+ void ensureDatabaseExists() {}
- void connect(String url) {}
}

Class GifManager {
- ImageView imageView
+ GifManager(ImageView imageView) {}
+ void playGif(String gifPath) {}
}

Class SoundManager {
- Media sound
- MediaPlayer mediaPlayer
+ void playSound(String filePath) {}
}
}

Main *- "Util"
Main *-- "Game"
Game *-- "Controller"
@enduml